<svg width="1" height="2" viewBox="0 0 1 2" fill="none" xmlns="http://www.w3.org/2000/svg">
<path d="M-247 -567H300V-569H-247V-567ZM301 -566V1697H303V-566H301ZM300 1698H-247V1700H300V1698ZM-248 1697V-566H-250V1697H-248ZM-247 1698C-247.552 1698 -248 1697.55 -248 1697H-250C-250 1698.66 -248.657 1700 -247 1700V1698ZM301 1697C301 1697.55 300.552 1698 300 1698V1700C301.657 1700 303 1698.66 303 1697H301ZM300 -567C300.552 -567 301 -566.552 301 -566H303C303 -567.657 301.657 -569 300 -569V-567ZM-247 -569C-248.657 -569 -250 -567.657 -250 -566H-248C-248 -566.552 -247.552 -567 -247 -567V-569Z" fill="white" fill-opacity="0.1"/>
<rect x="-19.5" y="-75.5" width="251" height="187" rx="4.5" stroke="#9747FF" stroke-dasharray="10 5"/>
<path d="M0.98 0V-10.08H8.701V0H7.672V-9.093H2.009V0H0.98ZM13.8167 0.21C13.0654 0.21 12.4237 0.0396667 11.8917 -0.301C11.3597 -0.641667 10.9514 -1.113 10.6667 -1.715C10.382 -2.317 10.2397 -3.00767 10.2397 -3.787C10.2397 -4.58033 10.3844 -5.27567 10.6737 -5.873C10.963 -6.47033 11.3737 -6.93467 11.9057 -7.266C12.4424 -7.602 13.0794 -7.77 13.8167 -7.77C14.5727 -7.77 15.2167 -7.59967 15.7487 -7.259C16.2854 -6.923 16.6937 -6.454 16.9737 -5.852C17.2584 -5.25467 17.4007 -4.56633 17.4007 -3.787C17.4007 -2.99367 17.2584 -2.296 16.9737 -1.694C16.689 -1.09667 16.2784 -0.63 15.7417 -0.294C15.205 0.042 14.5634 0.21 13.8167 0.21ZM13.8167 -0.777C14.6567 -0.777 15.282 -1.05467 15.6927 -1.61C16.1034 -2.17 16.3087 -2.89567 16.3087 -3.787C16.3087 -4.70167 16.101 -5.42967 15.6857 -5.971C15.275 -6.51233 14.652 -6.783 13.8167 -6.783C13.252 -6.783 12.7854 -6.65467 12.4167 -6.398C12.0527 -6.146 11.7797 -5.79367 11.5977 -5.341C11.4204 -4.893 11.3317 -4.375 11.3317 -3.787C11.3317 -2.877 11.5417 -2.14667 11.9617 -1.596C12.3817 -1.05 13 -0.777 13.8167 -0.777ZM18.2448 0V-0.903C18.5248 -0.851667 18.7372 -0.863333 18.8818 -0.938C19.0312 -1.01733 19.1408 -1.148 19.2108 -1.33C19.2808 -1.51667 19.3392 -1.74767 19.3858 -2.023C19.4605 -2.48033 19.5282 -2.98433 19.5888 -3.535C19.6495 -4.08567 19.7032 -4.69233 19.7498 -5.355C19.8012 -6.02233 19.8525 -6.75733 19.9038 -7.56H25.0418V0H24.0198V-6.573H20.8558C20.8232 -6.07833 20.7858 -5.586 20.7438 -5.096C20.7018 -4.606 20.6575 -4.13467 20.6108 -3.682C20.5688 -3.234 20.5222 -2.821 20.4708 -2.443C20.4195 -2.065 20.3658 -1.73833 20.3098 -1.463C20.2258 -1.04767 20.1138 -0.716333 19.9738 -0.469C19.8385 -0.221667 19.6355 -0.0583333 19.3648 0.021C19.0942 0.100333 18.7208 0.0933333 18.2448 0ZM33.0036 -7.56V0H32.0026V-5.887L27.8586 0H26.9906V-7.56H27.9916V-1.722L32.1426 -7.56H33.0036ZM37.0193 0V-6.608H34.3383V-7.56H40.7293V-6.608H38.0483V0H37.0193ZM48.07 -7.56V0H47.069V-5.887L42.925 0H42.057V-7.56H43.058V-1.722L47.209 -7.56H48.07ZM50.0277 0L50.0347 -7.56H51.0707V-3.92L54.4447 -7.56H55.8167L52.2747 -3.78L56.2787 0H54.7807L51.0707 -3.64V0H50.0277ZM59.143 0.21C58.5737 0.21 58.0953 0.107333 57.708 -0.098C57.3253 -0.303333 57.0383 -0.576333 56.847 -0.917C56.6557 -1.25767 56.56 -1.62867 56.56 -2.03C56.56 -2.44067 56.6417 -2.79067 56.805 -3.08C56.973 -3.374 57.1993 -3.61433 57.484 -3.801C57.7733 -3.98767 58.107 -4.13 58.485 -4.228C58.8677 -4.32133 59.29 -4.403 59.752 -4.473C60.2187 -4.54767 60.6737 -4.61067 61.117 -4.662C61.565 -4.718 61.957 -4.77167 62.293 -4.823L61.929 -4.599C61.943 -5.34567 61.7983 -5.89867 61.495 -6.258C61.1917 -6.61733 60.6643 -6.797 59.913 -6.797C59.395 -6.797 58.9563 -6.68033 58.597 -6.447C58.2423 -6.21367 57.9927 -5.845 57.848 -5.341L56.847 -5.635C57.0197 -6.31167 57.3673 -6.83667 57.89 -7.21C58.4127 -7.58333 59.0917 -7.77 59.927 -7.77C60.6177 -7.77 61.2033 -7.63933 61.684 -7.378C62.1693 -7.12133 62.5123 -6.748 62.713 -6.258C62.8063 -6.03867 62.867 -5.79367 62.895 -5.523C62.923 -5.25233 62.937 -4.977 62.937 -4.697V0H62.02V-1.897L62.286 -1.785C62.0293 -1.13633 61.6303 -0.641667 61.089 -0.301C60.5477 0.0396667 59.899 0.21 59.143 0.21ZM59.262 -0.679C59.7427 -0.679 60.1627 -0.765333 60.522 -0.938C60.8813 -1.11067 61.1707 -1.34633 61.39 -1.645C61.6093 -1.94833 61.7517 -2.289 61.817 -2.667C61.873 -2.90967 61.9033 -3.17567 61.908 -3.465C61.9127 -3.759 61.915 -3.97833 61.915 -4.123L62.307 -3.92C61.957 -3.87333 61.5767 -3.82667 61.166 -3.78C60.76 -3.73333 60.3587 -3.67967 59.962 -3.619C59.57 -3.55833 59.2153 -3.486 58.898 -3.402C58.6833 -3.34133 58.4757 -3.255 58.275 -3.143C58.0743 -3.03567 57.9087 -2.891 57.778 -2.709C57.652 -2.527 57.589 -2.30067 57.589 -2.03C57.589 -1.81067 57.6427 -1.59833 57.75 -1.393C57.862 -1.18767 58.0393 -1.01733 58.282 -0.882C58.5293 -0.746667 58.856 -0.679 59.262 -0.679ZM67.555 0L67.562 -7.56H68.598V-3.92L71.972 -7.56H73.344L69.802 -3.78L73.806 0H72.308L68.598 -3.64V0H67.555ZM77.5276 0.21C76.7763 0.21 76.1346 0.0396667 75.6026 -0.301C75.0706 -0.641667 74.6623 -1.113 74.3776 -1.715C74.093 -2.317 73.9506 -3.00767 73.9506 -3.787C73.9506 -4.58033 74.0953 -5.27567 74.3846 -5.873C74.674 -6.47033 75.0846 -6.93467 75.6166 -7.266C76.1533 -7.602 76.7903 -7.77 77.5276 -7.77C78.2836 -7.77 78.9276 -7.59967 79.4596 -7.259C79.9963 -6.923 80.4046 -6.454 80.6846 -5.852C80.9693 -5.25467 81.1116 -4.56633 81.1116 -3.787C81.1116 -2.99367 80.9693 -2.296 80.6846 -1.694C80.4 -1.09667 79.9893 -0.63 79.4526 -0.294C78.916 0.042 78.2743 0.21 77.5276 0.21ZM77.5276 -0.777C78.3676 -0.777 78.993 -1.05467 79.4036 -1.61C79.8143 -2.17 80.0196 -2.89567 80.0196 -3.787C80.0196 -4.70167 79.812 -5.42967 79.3966 -5.971C78.986 -6.51233 78.363 -6.783 77.5276 -6.783C76.963 -6.783 76.4963 -6.65467 76.1276 -6.398C75.7636 -6.146 75.4906 -5.79367 75.3086 -5.341C75.1313 -4.893 75.0426 -4.375 75.0426 -3.787C75.0426 -2.877 75.2526 -2.14667 75.6726 -1.596C76.0926 -1.05 76.711 -0.777 77.5276 -0.777ZM82.6488 0V-7.56H83.6778V-4.277H87.9408V-7.56H88.9698V0H87.9408V-3.29H83.6778V0H82.6488ZM94.5113 3.15V0.147C93.7739 0.263667 93.1019 0.184333 92.4953 -0.091C91.8886 -0.371 91.4056 -0.823667 91.0463 -1.449C90.6869 -2.07433 90.5073 -2.849 90.5073 -3.773C90.5073 -4.697 90.6869 -5.47167 91.0463 -6.097C91.4056 -6.727 91.8886 -7.182 92.4953 -7.462C93.1019 -7.742 93.7739 -7.82367 94.5113 -7.707V-10.024H95.4633V-7.707C96.2006 -7.82367 96.8726 -7.742 97.4793 -7.462C98.0859 -7.182 98.5689 -6.727 98.9283 -6.097C99.2876 -5.47167 99.4673 -4.697 99.4673 -3.773C99.4673 -2.849 99.2876 -2.07433 98.9283 -1.449C98.5689 -0.823667 98.0859 -0.371 97.4793 -0.091C96.8726 0.184333 96.2006 0.263667 95.4633 0.147V3.15H94.5113ZM94.5113 -0.812V-6.741C94.1333 -6.80633 93.7693 -6.79467 93.4193 -6.706C93.0693 -6.622 92.7543 -6.45633 92.4743 -6.209C92.1943 -5.96633 91.9726 -5.642 91.8093 -5.236C91.6506 -4.83467 91.5713 -4.347 91.5713 -3.773C91.5713 -3.199 91.6529 -2.709 91.8163 -2.303C91.9796 -1.90167 92.2013 -1.57967 92.4813 -1.337C92.7613 -1.09433 93.0763 -0.931 93.4263 -0.847C93.7763 -0.763 94.1379 -0.751333 94.5113 -0.812ZM95.4633 -0.812C95.8366 -0.751333 96.1983 -0.763 96.5483 -0.847C96.8983 -0.931 97.2133 -1.092 97.4933 -1.33C97.7733 -1.57267 97.9949 -1.89467 98.1583 -2.296C98.3216 -2.702 98.4033 -3.19433 98.4033 -3.773C98.4033 -4.35167 98.3216 -4.84167 98.1583 -5.243C97.9996 -5.649 97.7803 -5.97333 97.5003 -6.216C97.2203 -6.45867 96.9053 -6.622 96.5553 -6.706C96.2053 -6.79467 95.8413 -6.80633 95.4633 -6.741V-0.812ZM107.009 -7.56V0H106.008V-5.887L101.864 0H100.996V-7.56H101.997V-1.722L106.148 -7.56H107.009ZM108.414 1.68V-0.882C108.843 -0.882 109.151 -1.01967 109.338 -1.295C109.525 -1.575 109.676 -2.02067 109.793 -2.632C109.872 -3.02867 109.938 -3.45567 109.989 -3.913C110.04 -4.37033 110.085 -4.893 110.122 -5.481C110.159 -6.07367 110.194 -6.76667 110.227 -7.56H115.225V-0.882H115.953V1.68H114.959V0H109.401V1.68H108.414ZM110.157 -0.882H114.203V-6.678H111.179C111.165 -6.32333 111.144 -5.94767 111.116 -5.551C111.093 -5.15433 111.062 -4.75767 111.025 -4.361C110.992 -3.96433 110.953 -3.591 110.906 -3.241C110.864 -2.89567 110.813 -2.59233 110.752 -2.331C110.682 -1.995 110.605 -1.708 110.521 -1.47C110.442 -1.232 110.32 -1.036 110.157 -0.882ZM120.554 0.21C119.817 0.21 119.177 0.0466667 118.636 -0.28C118.099 -0.606667 117.682 -1.06633 117.383 -1.659C117.084 -2.25167 116.935 -2.947 116.935 -3.745C116.935 -4.571 117.082 -5.285 117.376 -5.887C117.67 -6.489 118.083 -6.95333 118.615 -7.28C119.152 -7.60667 119.784 -7.77 120.512 -7.77C121.259 -7.77 121.896 -7.59733 122.423 -7.252C122.95 -6.91133 123.349 -6.42133 123.62 -5.782C123.891 -5.14267 124.014 -4.37967 123.991 -3.493H122.941V-3.857C122.922 -4.837 122.71 -5.57667 122.304 -6.076C121.903 -6.57533 121.315 -6.825 120.54 -6.825C119.728 -6.825 119.105 -6.56133 118.671 -6.034C118.242 -5.50667 118.027 -4.75533 118.027 -3.78C118.027 -2.828 118.242 -2.08833 118.671 -1.561C119.105 -1.03833 119.719 -0.777 120.512 -0.777C121.053 -0.777 121.525 -0.900667 121.926 -1.148C122.332 -1.4 122.652 -1.76167 122.885 -2.233L123.844 -1.862C123.545 -1.204 123.104 -0.693 122.521 -0.329C121.942 0.0303333 121.287 0.21 120.554 0.21ZM117.663 -3.493V-4.354H123.438V-3.493H117.663ZM125.537 0V-7.56H126.566V-4.277H130.829V-7.56H131.858V0H130.829V-3.29H126.566V0H125.537ZM140.312 1.309V0H133.809V-7.56H134.838V-0.987H138.793V-7.56H139.822V-0.952H141.341V1.309H140.312ZM148.463 -7.56V0H147.462V-5.887L143.318 0H142.45V-7.56H143.451V-1.722L147.602 -7.56H148.463ZM152.59 0.21C152.021 0.21 151.543 0.107333 151.155 -0.098C150.773 -0.303333 150.486 -0.576333 150.294 -0.917C150.103 -1.25767 150.007 -1.62867 150.007 -2.03C150.007 -2.44067 150.089 -2.79067 150.252 -3.08C150.42 -3.374 150.647 -3.61433 150.931 -3.801C151.221 -3.98767 151.554 -4.13 151.932 -4.228C152.315 -4.32133 152.737 -4.403 153.199 -4.473C153.666 -4.54767 154.121 -4.61067 154.564 -4.662C155.012 -4.718 155.404 -4.77167 155.74 -4.823L155.376 -4.599C155.39 -5.34567 155.246 -5.89867 154.942 -6.258C154.639 -6.61733 154.112 -6.797 153.36 -6.797C152.842 -6.797 152.404 -6.68033 152.044 -6.447C151.69 -6.21367 151.44 -5.845 151.295 -5.341L150.294 -5.635C150.467 -6.31167 150.815 -6.83667 151.337 -7.21C151.86 -7.58333 152.539 -7.77 153.374 -7.77C154.065 -7.77 154.651 -7.63933 155.131 -7.378C155.617 -7.12133 155.96 -6.748 156.16 -6.258C156.254 -6.03867 156.314 -5.79367 156.342 -5.523C156.37 -5.25233 156.384 -4.977 156.384 -4.697V0H155.467V-1.897L155.733 -1.785C155.477 -1.13633 155.078 -0.641667 154.536 -0.301C153.995 0.0396667 153.346 0.21 152.59 0.21ZM152.709 -0.679C153.19 -0.679 153.61 -0.765333 153.969 -0.938C154.329 -1.11067 154.618 -1.34633 154.837 -1.645C155.057 -1.94833 155.199 -2.289 155.264 -2.667C155.32 -2.90967 155.351 -3.17567 155.355 -3.465C155.36 -3.759 155.362 -3.97833 155.362 -4.123L155.754 -3.92C155.404 -3.87333 155.024 -3.82667 154.613 -3.78C154.207 -3.73333 153.806 -3.67967 153.409 -3.619C153.017 -3.55833 152.663 -3.486 152.345 -3.402C152.131 -3.34133 151.923 -3.255 151.722 -3.143C151.522 -3.03567 151.356 -2.891 151.225 -2.709C151.099 -2.527 151.036 -2.30067 151.036 -2.03C151.036 -1.81067 151.09 -1.59833 151.197 -1.393C151.309 -1.18767 151.487 -1.01733 151.729 -0.882C151.977 -0.746667 152.303 -0.679 152.709 -0.679ZM157.507 0V-0.903C157.787 -0.851667 157.999 -0.863333 158.144 -0.938C158.293 -1.01733 158.403 -1.148 158.473 -1.33C158.543 -1.51667 158.601 -1.74767 158.648 -2.023C158.722 -2.48033 158.79 -2.98433 158.851 -3.535C158.911 -4.08567 158.965 -4.69233 159.012 -5.355C159.063 -6.02233 159.114 -6.75733 159.166 -7.56H164.304V0H163.282V-6.573H160.118C160.085 -6.07833 160.048 -5.586 160.006 -5.096C159.964 -4.606 159.919 -4.13467 159.873 -3.682C159.831 -3.234 159.784 -2.821 159.733 -2.443C159.681 -2.065 159.628 -1.73833 159.572 -1.463C159.488 -1.04767 159.376 -0.716333 159.236 -0.469C159.1 -0.221667 158.897 -0.0583333 158.627 0.021C158.356 0.100333 157.983 0.0933333 157.507 0ZM166.266 0L166.252 -7.56H167.288V-4.711H169.059C169.279 -4.711 169.493 -4.70633 169.703 -4.697C169.918 -4.68767 170.107 -4.669 170.27 -4.641C170.644 -4.571 170.975 -4.44733 171.264 -4.27C171.558 -4.09267 171.787 -3.84767 171.95 -3.535C172.118 -3.22233 172.202 -2.83033 172.202 -2.359C172.202 -1.71033 172.034 -1.19933 171.698 -0.826C171.367 -0.452667 170.947 -0.21 170.438 -0.098C170.247 -0.056 170.039 -0.028 169.815 -0.014C169.591 -0.00466667 169.37 0 169.15 0H166.266ZM167.288 -0.882H169.108C169.267 -0.882 169.444 -0.886667 169.64 -0.896C169.836 -0.905333 170.009 -0.931 170.158 -0.973C170.406 -1.043 170.63 -1.183 170.83 -1.393C171.036 -1.60767 171.138 -1.92967 171.138 -2.359C171.138 -2.78367 171.04 -3.10333 170.844 -3.318C170.648 -3.53733 170.387 -3.682 170.06 -3.752C169.916 -3.78467 169.759 -3.80567 169.591 -3.815C169.423 -3.82433 169.262 -3.829 169.108 -3.829H167.288V-0.882ZM173.526 0V-7.56H174.555V-4.277H178.818V-7.56H179.847V0H178.818V-3.29H174.555V0H173.526ZM184.961 0.21C184.21 0.21 183.568 0.0396667 183.036 -0.301C182.504 -0.641667 182.096 -1.113 181.811 -1.715C181.527 -2.317 181.384 -3.00767 181.384 -3.787C181.384 -4.58033 181.529 -5.27567 181.818 -5.873C182.108 -6.47033 182.518 -6.93467 183.05 -7.266C183.587 -7.602 184.224 -7.77 184.961 -7.77C185.717 -7.77 186.361 -7.59967 186.893 -7.259C187.43 -6.923 187.838 -6.454 188.118 -5.852C188.403 -5.25467 188.545 -4.56633 188.545 -3.787C188.545 -2.99367 188.403 -2.296 188.118 -1.694C187.834 -1.09667 187.423 -0.63 186.886 -0.294C186.35 0.042 185.708 0.21 184.961 0.21ZM184.961 -0.777C185.801 -0.777 186.427 -1.05467 186.837 -1.61C187.248 -2.17 187.453 -2.89567 187.453 -3.787C187.453 -4.70167 187.246 -5.42967 186.83 -5.971C186.42 -6.51233 185.797 -6.783 184.961 -6.783C184.397 -6.783 183.93 -6.65467 183.561 -6.398C183.197 -6.146 182.924 -5.79367 182.742 -5.341C182.565 -4.893 182.476 -4.375 182.476 -3.787C182.476 -2.877 182.686 -2.14667 183.106 -1.596C183.526 -1.05 184.145 -0.777 184.961 -0.777ZM193.225 0.21C192.465 0.21 191.821 0.0396667 191.293 -0.301C190.766 -0.641667 190.365 -1.11067 190.089 -1.708C189.819 -2.31 189.679 -3.00067 189.669 -3.78C189.679 -4.57333 189.823 -5.26867 190.103 -5.866C190.383 -6.468 190.787 -6.93467 191.314 -7.266C191.842 -7.602 192.481 -7.77 193.232 -7.77C193.998 -7.77 194.663 -7.58333 195.227 -7.21C195.797 -6.83667 196.186 -6.32567 196.396 -5.677L195.388 -5.355C195.211 -5.80767 194.929 -6.15767 194.541 -6.405C194.159 -6.657 193.72 -6.783 193.225 -6.783C192.67 -6.783 192.21 -6.65467 191.846 -6.398C191.482 -6.146 191.212 -5.79367 191.034 -5.341C190.857 -4.88833 190.766 -4.368 190.761 -3.78C190.771 -2.87467 190.981 -2.14667 191.391 -1.596C191.802 -1.05 192.413 -0.777 193.225 -0.777C193.739 -0.777 194.175 -0.893667 194.534 -1.127C194.898 -1.365 195.174 -1.71033 195.36 -2.163L196.396 -1.855C196.116 -1.183 195.706 -0.669667 195.164 -0.315C194.623 0.035 193.977 0.21 193.225 0.21ZM199.715 0V-6.608H197.034V-7.56H203.425V-6.608H200.744V0H199.715ZM210.765 -7.56V0H209.764V-5.887L205.62 0H204.752V-7.56H205.753V-1.722L209.904 -7.56H210.765Z" fill="#316DC2"/>
<path d="M0 0.875H9.681V1.225H0V0.875ZM9.67969 0.875H26.0218V1.225H9.67969V0.875ZM26.0176 0.875H73.526V1.225H26.0176V0.875ZM73.3906 0.875H89.9498V1.225H73.3906V0.875ZM89.9473 0.875H100.027V1.225H89.9473V0.875ZM100.023 0.875H132.838V1.225H100.023V0.875ZM132.836 0.875H141.481V1.225H132.836V0.875ZM141.477 0.875H165.284V1.225H141.477V0.875ZM165.279 0.875H172.762V1.225H165.279V0.875ZM172.553 0.875H180.827V1.225H172.553V0.875ZM180.824 0.875H196.858V1.225H180.824V0.875ZM196.684 0.875H211.745V1.225H196.684V0.875Z" fill="#316DC2"/>
</svg>
