<svg width="26" height="26" viewBox="0 0 26 26" fill="none" xmlns="http://www.w3.org/2000/svg">
<path d="M13.0001 8.9702C13.6949 8.9702 14.26 9.52415 14.26 10.2053C14.26 10.8844 13.6949 11.4384 13.0001 11.4384C12.3052 11.4384 11.7401 10.8844 11.7401 10.2053C11.7401 9.52415 12.3052 8.9702 13.0001 8.9702ZM13.0001 13.1864C14.6786 13.1864 16.0433 11.8487 16.0433 10.2053C16.0433 8.55986 14.6786 7.22217 13.0001 7.22217C11.3215 7.22217 9.95899 8.55986 9.95899 10.2053C9.95899 11.8487 11.3215 13.1864 13.0001 13.1864ZM14.2307 15.6197C14.8503 15.4802 15.4468 15.2401 15.9972 14.9016C16.4137 14.6451 16.5393 14.1055 16.2777 13.6973C16.014 13.2869 15.4656 13.1638 15.047 13.4223C13.8017 14.1897 12.1985 14.1897 10.9511 13.4223C10.5346 13.1638 9.98411 13.2869 9.72248 13.6973C9.46086 14.1055 9.58644 14.6451 10.0029 14.9016C10.5534 15.2401 11.1499 15.4802 11.7694 15.6197L10.0678 17.2856C9.72039 17.6262 9.72039 18.1802 10.0678 18.5208C10.2436 18.691 10.4697 18.7772 10.6978 18.7772C10.9259 18.7772 11.1541 18.691 11.3299 18.5208L13.0001 16.8835L14.6724 18.5208C15.0198 18.8634 15.5828 18.8634 15.9323 18.5208C16.2798 18.1802 16.2798 17.6262 15.9323 17.2856L14.2307 15.6197Z" fill="white"/>
</svg>
