<svg width="26" height="26" viewBox="0 0 26 26" fill="none" xmlns="http://www.w3.org/2000/svg">
<path d="M14.0223 7.48486C13.6855 7.48486 13.3694 7.66429 13.1666 7.92305C12.9639 8.18181 12.8521 8.49723 12.7707 8.82965C12.6414 9.36417 12.6014 9.95724 12.5919 10.4918C11.6451 10.5579 10.7878 10.8525 10.0758 11.3077C9.78678 11.0527 9.43874 10.9111 9.10507 10.9148C8.7251 10.9186 8.36428 11.0905 8.09607 11.4437C7.58358 12.118 7.64266 13.221 8.23656 13.8764C8.19984 14.0785 8.1727 14.2863 8.1727 14.4959C8.1727 16.7171 10.3344 18.5152 13.0006 18.5152C15.6668 18.5152 17.8284 16.7152 17.8284 14.4959C17.8284 14.2863 17.8013 14.0785 17.7646 13.8764C18.3585 13.221 18.4176 12.118 17.9051 11.4437C17.6369 11.0905 17.2761 10.9186 16.8961 10.9148C16.5624 10.9111 16.2144 11.0527 15.9254 11.3077C15.2165 10.8544 14.364 10.5597 13.4221 10.4918C13.4348 9.99879 13.4684 9.48694 13.5625 9.10163C13.6216 8.85987 13.6919 8.68422 13.7669 8.58789C13.8419 8.49157 13.8962 8.4519 14.0223 8.4519C14.2953 8.4519 14.3305 8.54445 14.4949 8.76921C14.5779 8.88254 14.6737 9.0242 14.827 9.16207C14.9803 9.29995 15.207 9.41894 15.4528 9.41894V8.4519C15.3842 8.4519 15.3714 8.45002 15.3251 8.40657C15.2788 8.36313 15.2149 8.26303 15.1207 8.13459C14.9324 7.87583 14.5668 7.48486 14.0223 7.48486ZM16.679 7.57552C16.0435 7.57552 15.5295 8.1837 15.5295 8.93542C15.5295 9.68715 16.0435 10.2953 16.679 10.2953C17.3144 10.2953 17.8284 9.68715 17.8284 8.93542C17.8284 8.1837 17.3144 7.57552 16.679 7.57552ZM16.679 8.05904C17.0877 8.05904 17.4197 8.4519 17.4197 8.93542C17.4197 9.41894 17.0877 9.8118 16.679 9.8118C16.2702 9.8118 15.9382 9.41894 15.9382 8.93542C15.9382 8.4519 16.2702 8.05904 16.679 8.05904ZM13.0006 11.2473C15.2628 11.2473 17.1771 12.7375 17.1771 14.4959C17.1771 16.2562 15.2628 17.7446 13.0006 17.7446C10.7383 17.7446 8.82408 16.2562 8.82408 14.4959C8.82408 12.7375 10.7383 11.2473 13.0006 11.2473ZM9.11784 11.6854C9.23119 11.6873 9.34933 11.7176 9.46269 11.7761C9.05238 12.1444 8.72669 12.5675 8.50478 13.0453C8.35151 12.6714 8.39302 12.2049 8.58141 11.9574C8.71871 11.7761 8.90869 11.6836 9.11784 11.6854ZM16.8833 11.6854C17.0925 11.6836 17.2824 11.7761 17.4197 11.9574C17.6081 12.2049 17.6496 12.6714 17.4964 13.0453C17.2745 12.5675 16.9488 12.1444 16.5385 11.7761C16.6518 11.7176 16.77 11.6873 16.8833 11.6854ZM11.3657 12.8942C10.957 12.8942 10.625 13.2871 10.625 13.7706C10.625 14.2541 10.957 14.647 11.3657 14.647C11.7744 14.647 12.1065 14.2541 12.1065 13.7706C12.1065 13.2871 11.7744 12.8942 11.3657 12.8942ZM14.6354 12.8942C14.2267 12.8942 13.8946 13.2871 13.8946 13.7706C13.8946 14.2541 14.2267 14.647 14.6354 14.647C15.0441 14.647 15.3762 14.2541 15.3762 13.7706C15.3762 13.2871 15.0441 12.8942 14.6354 12.8942ZM10.9698 15.8709C11.23 16.5074 12.0347 17.125 13.0006 17.125C13.9665 17.125 14.7839 16.5074 15.0441 15.8709C14.5715 16.2317 13.826 16.4753 13.0006 16.4753C12.1752 16.4753 11.4424 16.2317 10.9698 15.8709Z" fill="white"/>
</svg>
