<svg width="26" height="26" viewBox="0 0 26 26" fill="none" xmlns="http://www.w3.org/2000/svg">
<path d="M18.6752 15.4703C18.6442 15.4206 18.452 15.0215 17.5275 14.2012C16.5597 13.3423 16.6897 13.4817 17.8554 11.9965C18.5654 11.092 18.8493 10.5396 18.7604 10.3035C18.6759 10.0784 18.1537 10.1378 18.1537 10.1378L16.4174 10.1474C16.4174 10.1474 16.2888 10.1309 16.1928 10.1854C16.0996 10.2393 16.0396 10.3635 16.0396 10.3635C16.0396 10.3635 15.7644 11.0637 15.3975 11.6589C14.624 12.9148 14.3141 12.9811 14.1877 12.9031C13.8938 12.7215 13.9674 12.1726 13.9674 11.7832C13.9674 10.5659 14.1603 10.0584 13.5911 9.92716C13.4019 9.88366 13.2632 9.85466 12.78 9.84983C12.1603 9.84361 11.6352 9.8519 11.3383 9.99069C11.1404 10.0832 10.988 10.2897 11.0812 10.3014C11.1961 10.3159 11.4561 10.3684 11.594 10.5479C11.7724 10.7792 11.7659 11.2998 11.7659 11.2998C11.7659 11.2998 11.8685 12.7326 11.5269 12.9107C11.2921 13.0329 10.9707 12.7837 10.2809 11.6437C9.92774 11.0602 9.6605 10.4146 9.6605 10.4146C9.6605 10.4146 9.60922 10.2945 9.51749 10.2303C9.40626 10.1523 9.25024 10.1274 9.25024 10.1274L7.59912 10.1371C7.59912 10.1371 7.35138 10.144 7.26038 10.2469C7.17948 10.3387 7.25388 10.5279 7.25388 10.5279C7.25388 10.5279 8.54675 13.4189 10.0101 14.8765C11.3528 16.2126 12.8768 16.1249 12.8768 16.1249H13.5673C13.5673 16.1249 13.776 16.1028 13.8822 15.993C13.9804 15.8922 13.9768 15.703 13.9768 15.703C13.9768 15.703 13.9631 14.8171 14.3936 14.6866C14.8175 14.5582 15.3621 15.5428 15.9392 15.9219C16.3755 16.2084 16.707 16.1456 16.707 16.1456L18.2505 16.1249C18.2505 16.1249 19.058 16.0772 18.6752 15.4703Z" fill="white"/>
</svg>
